<svg xmlns="http://www.w3.org/2000/svg" xmlns:xlink="http://www.w3.org/1999/xlink" viewBox="0 0 390.13 545.29"><defs><style>.a{fill:url(#a);}.b{fill:url(#b);}</style><linearGradient id="a" x1="42.68" y1="300.59" x2="294.04" y2="300.59" gradientUnits="userSpaceOnUse"><stop offset="0" stop-color="#fff"/><stop offset="0.03" stop-color="#47c071"/><stop offset="0.42" stop-color="#46bd6f"/><stop offset="0.69" stop-color="#41b46a"/><stop offset="0.92" stop-color="#3aa560"/><stop offset="1" stop-color="#379e5c"/></linearGradient><linearGradient id="b" x1="233.37" y1="299.63" x2="21.4" y2="286.88" gradientTransform="matrix(-0.94, 0, 0, 1, 519.1, 0)" gradientUnits="userSpaceOnUse"><stop offset="0" stop-color="#007949"/><stop offset="0.23" stop-color="#00864f"/><stop offset="0.68" stop-color="#009857"/><stop offset="1" stop-color="#009f5a"/></linearGradient></defs><path class="a" d="M299.3,28.39,207.39,152.12h-23l-35.29,83.51h-23l1.71,87.06-23,6.18,31.81,85.73-21.21,11.49L170.27,488,157.9,501.21s22.09,29.16,68,48.61c42.72,18.07,74.23,23,74.23,23Z" transform="translate(-104.87 -27.51)"/><path class="b" d="M299.69,27.51,392,151.23H415.1l32,81.31h23.08l1.78,89.26L495,328l-32,85.72,21.31,11.49-55,61.87,12.42,13.25s-22.19,29.17-68.35,48.61c-42.93,18.08-74.58,23-74.58,23Z" transform="translate(-104.87 -27.51)"/></svg>